<?xml version="1.0" encoding="UTF-8"?><svg xmlns="http://www.w3.org/2000/svg" xmlns:xlink="http://www.w3.org/1999/xlink" contentScriptType="text/ecmascript" width="1440" zoomAndPan="magnify" contentStyleType="text/css" viewBox="0 0 1440 359.999987" height="359.999987" preserveAspectRatio="xMidYMid meet" version="1.0"><defs><clipPath id="clip-0"><path d="M 1 172.195312 L 1440 172.195312 L 1440 282 L 1 282 Z M 1 172.195312 " clip-rule="nonzero"/></clipPath><clipPath id="clip-1"><path d="M 2 281 L 1440 281 L 1440 358.90625 L 2 358.90625 Z M 2 281 " clip-rule="nonzero"/></clipPath></defs><path fill="rgb(19.60907%, 30.589294%, 35.688782%)" d="M 140.074219 203.539062 C 140.074219 203.539062 134.195312 195.972656 126.941406 182.742188 L 131.203125 182.742188 C 131.203125 182.742188 125.238281 175.066406 118.59375 161.9375 L 122.359375 161.9375 C 122.359375 161.9375 116.246094 154.078125 110.648438 141.136719 L 114.921875 141.136719 C 114.921875 141.136719 106.109375 129.800781 103.109375 113.261719 C 103.105469 113.222656 103.066406 113.234375 103.058594 113.265625 C 98.746094 133.148438 91.195312 141.136719 91.195312 141.136719 L 95.597656 141.136719 C 89.648438 155.703125 83.761719 161.9375 83.761719 161.9375 L 87.925781 161.9375 C 80.898438 176.390625 74.914062 182.742188 74.914062 182.742188 L 79.8125 182.742188 C 72.089844 197.132812 66.039062 203.539062 66.039062 203.539062 L 96.636719 203.539062 L 96.636719 213.082031 L 109.480469 213.082031 L 109.480469 203.539062 L 140.074219 203.539062 " fill-opacity="1" fill-rule="nonzero"/><g clip-path="url(#clip-0)"><path fill="rgb(100%, 96.078491%, 92.158508%)" d="M 1439.769531 183.359375 C 1394.382812 166.839844 1356.738281 212.882812 1273.007812 212.882812 C 1160.425781 212.882812 1160.425781 200.582031 1047.84375 200.582031 C 935.261719 200.582031 935.261719 226.238281 822.679688 226.238281 C 710.097656 226.238281 710.097656 215.695312 597.515625 215.695312 C 484.933594 215.695312 484.933594 170.707031 372.351562 170.707031 C 259.773438 170.707031 259.773438 212.53125 147.191406 212.53125 C 52.550781 212.53125 46.921875 177.734375 1.539062 223.777344 L 1.539062 281.421875 L 1439.0625 281.421875 L 1439.0625 183.359375 Z M 1439.769531 183.359375 " fill-opacity="1" fill-rule="nonzero"/></g><g clip-path="url(#clip-1)"><path fill="rgb(100%, 96.078491%, 92.158508%)" d="M 2.242188 281.070312 L 1439.769531 281.070312 L 1439.769531 1184.714844 L 2.242188 1184.714844 Z M 2.242188 281.070312 " fill-opacity="1" fill-rule="nonzero"/></g><path fill="rgb(19.60907%, 30.589294%, 35.688782%)" d="M 318.832031 268.140625 C 318.832031 268.140625 309.980469 256.746094 299.058594 236.820312 L 305.476562 236.820312 C 305.476562 236.820312 296.492188 225.265625 286.488281 205.496094 L 292.15625 205.496094 C 292.15625 205.496094 282.953125 193.664062 274.523438 174.175781 L 280.960938 174.175781 C 280.960938 174.175781 267.6875 157.109375 263.175781 132.203125 C 263.164062 132.148438 263.109375 132.164062 263.097656 132.207031 C 256.601562 162.148438 245.234375 174.175781 245.234375 174.175781 L 251.859375 174.175781 C 242.902344 196.109375 234.039062 205.496094 234.039062 205.496094 L 240.308594 205.496094 C 229.726562 227.257812 220.71875 236.820312 220.71875 236.820312 L 228.09375 236.820312 C 216.46875 258.492188 207.355469 268.140625 207.355469 268.140625 L 253.425781 268.140625 L 253.425781 282.507812 L 272.761719 282.507812 L 272.761719 268.140625 L 318.832031 268.140625 " fill-opacity="1" fill-rule="nonzero"/><path fill="rgb(19.60907%, 30.589294%, 35.688782%)" d="M 443.28125 194.308594 C 443.28125 194.308594 435.710938 184.5625 426.375 167.53125 L 431.859375 167.53125 C 431.859375 167.53125 424.179688 157.648438 415.625 140.75 L 420.472656 140.75 C 420.472656 140.75 412.605469 130.632812 405.398438 113.972656 L 410.902344 113.972656 C 410.902344 113.972656 399.554688 99.378906 395.695312 78.085938 C 395.6875 78.035156 395.636719 78.050781 395.628906 78.089844 C 390.074219 103.6875 380.355469 113.972656 380.355469 113.972656 L 386.019531 113.972656 C 378.363281 132.722656 370.785156 140.75 370.785156 140.75 L 376.144531 140.75 C 367.101562 159.351562 359.398438 167.53125 359.398438 167.53125 L 365.703125 167.53125 C 355.761719 186.054688 347.972656 194.308594 347.972656 194.308594 L 387.359375 194.308594 L 387.359375 206.589844 L 403.894531 206.589844 L 403.894531 194.308594 L 443.28125 194.308594 " fill-opacity="1" fill-rule="nonzero"/><path fill="rgb(19.60907%, 30.589294%, 35.688782%)" d="M 673.5 203.542969 C 673.5 203.542969 664.648438 192.144531 653.726562 172.222656 L 660.140625 172.222656 C 660.140625 172.222656 651.160156 160.667969 641.15625 140.898438 L 646.824219 140.898438 C 646.824219 140.898438 637.621094 129.066406 629.191406 109.578125 L 635.628906 109.578125 C 635.628906 109.578125 622.355469 92.511719 617.84375 67.605469 C 617.832031 67.546875 617.773438 67.566406 617.765625 67.609375 C 611.269531 97.550781 599.902344 109.578125 599.902344 109.578125 L 606.527344 109.578125 C 597.570312 131.507812 588.707031 140.898438 588.707031 140.898438 L 594.976562 140.898438 C 584.394531 162.660156 575.386719 172.222656 575.386719 172.222656 L 582.761719 172.222656 C 571.132812 193.890625 562.023438 203.542969 562.023438 203.542969 L 608.09375 203.542969 L 608.09375 217.910156 L 627.429688 217.910156 L 627.429688 203.542969 L 673.5 203.542969 " fill-opacity="1" fill-rule="nonzero"/><path fill="rgb(19.60907%, 30.589294%, 35.688782%)" d="M 571.644531 325.304688 C 571.644531 325.304688 564.074219 315.558594 554.738281 298.527344 L 560.222656 298.527344 C 560.222656 298.527344 552.542969 288.644531 543.988281 271.746094 L 548.835938 271.746094 C 548.835938 271.746094 540.96875 261.628906 533.761719 244.96875 L 539.265625 244.96875 C 539.265625 244.96875 527.917969 230.375 524.058594 209.082031 C 524.050781 209.035156 524 209.046875 523.992188 209.085938 C 518.4375 234.683594 508.71875 244.96875 508.71875 244.96875 L 514.386719 244.96875 C 506.726562 263.71875 499.148438 271.746094 499.148438 271.746094 L 504.507812 271.746094 C 495.464844 290.351562 487.761719 298.527344 487.761719 298.527344 L 494.066406 298.527344 C 484.125 317.050781 476.335938 325.304688 476.335938 325.304688 L 515.722656 325.304688 L 515.722656 337.585938 L 532.257812 337.585938 L 532.257812 325.304688 L 571.644531 325.304688 " fill-opacity="1" fill-rule="nonzero"/><path fill="rgb(19.60907%, 30.589294%, 35.688782%)" d="M 787.710938 236.132812 C 787.710938 236.132812 782.304688 229.171875 775.632812 217.007812 L 779.550781 217.007812 C 779.550781 217.007812 774.066406 209.949219 767.957031 197.878906 L 771.417969 197.878906 C 771.417969 197.878906 765.796875 190.652344 760.652344 178.75 L 764.582031 178.75 C 764.582031 178.75 756.476562 168.328125 753.71875 153.117188 C 753.714844 153.082031 753.679688 153.09375 753.671875 153.121094 C 749.703125 171.40625 742.765625 178.75 742.765625 178.75 L 746.808594 178.75 C 741.339844 192.144531 735.925781 197.878906 735.925781 197.878906 L 739.757812 197.878906 C 733.292969 211.167969 727.792969 217.007812 727.792969 217.007812 L 732.296875 217.007812 C 725.195312 230.238281 719.632812 236.132812 719.632812 236.132812 L 747.765625 236.132812 L 747.765625 244.90625 L 759.574219 244.90625 L 759.574219 236.132812 L 787.710938 236.132812 " fill-opacity="1" fill-rule="nonzero"/><path fill="rgb(19.60907%, 30.589294%, 35.688782%)" d="M 963.570312 326.90625 C 963.570312 326.90625 954.714844 315.507812 943.796875 295.585938 L 950.210938 295.585938 C 950.210938 295.585938 941.226562 284.03125 931.222656 264.261719 L 936.894531 264.261719 C 936.894531 264.261719 927.691406 252.425781 919.261719 232.941406 L 925.695312 232.941406 C 925.695312 232.941406 912.425781 215.875 907.910156 190.96875 C 907.902344 190.910156 907.84375 190.925781 907.832031 190.972656 C 901.335938 220.914062 889.96875 232.941406 889.96875 232.941406 L 896.597656 232.941406 C 887.640625 254.871094 878.773438 264.261719 878.773438 264.261719 L 885.046875 264.261719 C 874.464844 286.023438 865.457031 295.585938 865.457031 295.585938 L 872.832031 295.585938 C 861.203125 317.253906 852.09375 326.90625 852.09375 326.90625 L 898.164062 326.90625 L 898.164062 341.269531 L 917.5 341.269531 L 917.5 326.90625 L 963.570312 326.90625 " fill-opacity="1" fill-rule="nonzero"/><path fill="rgb(19.60907%, 30.589294%, 35.688782%)" d="M 1110.105469 258.90625 C 1110.105469 258.90625 1102.535156 249.160156 1093.199219 232.128906 L 1098.683594 232.128906 C 1098.683594 232.128906 1091.003906 222.25 1082.449219 205.347656 L 1087.296875 205.347656 C 1087.296875 205.347656 1079.429688 195.230469 1072.222656 178.570312 L 1077.726562 178.570312 C 1077.726562 178.570312 1066.378906 163.976562 1062.519531 142.683594 C 1062.511719 142.636719 1062.460938 142.648438 1062.453125 142.6875 C 1056.898438 168.285156 1047.179688 178.570312 1047.179688 178.570312 L 1052.847656 178.570312 C 1045.1875 197.320312 1037.609375 205.347656 1037.609375 205.347656 L 1042.96875 205.347656 C 1033.925781 223.953125 1026.222656 232.128906 1026.222656 232.128906 L 1032.527344 232.128906 C 1022.585938 250.65625 1014.796875 258.90625 1014.796875 258.90625 L 1054.183594 258.90625 L 1054.183594 271.1875 L 1070.71875 271.1875 L 1070.71875 258.90625 L 1110.105469 258.90625 " fill-opacity="1" fill-rule="nonzero"/><path fill="rgb(19.60907%, 30.589294%, 35.688782%)" d="M 1423.714844 182.703125 C 1423.714844 182.703125 1417.832031 175.132812 1410.582031 161.902344 L 1414.839844 161.902344 C 1414.839844 161.902344 1408.875 154.226562 1402.230469 141.097656 L 1405.996094 141.097656 C 1405.996094 141.097656 1399.882812 133.238281 1394.285156 120.300781 L 1398.5625 120.300781 C 1398.5625 120.300781 1389.746094 108.964844 1386.75 92.421875 C 1386.742188 92.386719 1386.703125 92.398438 1386.695312 92.425781 C 1382.382812 112.308594 1374.832031 120.300781 1374.832031 120.300781 L 1379.234375 120.300781 C 1373.285156 134.863281 1367.398438 141.097656 1367.398438 141.097656 L 1371.5625 141.097656 C 1364.535156 155.550781 1358.554688 161.902344 1358.554688 161.902344 L 1363.453125 161.902344 C 1355.730469 176.292969 1349.679688 182.703125 1349.679688 182.703125 L 1380.273438 182.703125 L 1380.273438 192.242188 L 1393.117188 192.242188 L 1393.117188 182.703125 L 1423.714844 182.703125 " fill-opacity="1" fill-rule="nonzero"/><path fill="rgb(19.60907%, 30.589294%, 35.688782%)" d="M 1296.984375 296.898438 C 1296.984375 296.898438 1288.128906 285.5 1277.207031 265.578125 L 1283.625 265.578125 C 1283.625 265.578125 1274.640625 254.023438 1264.636719 234.253906 L 1270.304688 234.253906 C 1270.304688 234.253906 1261.101562 222.421875 1252.675781 202.933594 L 1259.109375 202.933594 C 1259.109375 202.933594 1245.835938 185.867188 1241.324219 160.960938 C 1241.3125 160.902344 1241.257812 160.921875 1241.246094 160.964844 C 1234.75 190.90625 1223.382812 202.933594 1223.382812 202.933594 L 1230.007812 202.933594 C 1221.050781 224.863281 1212.1875 234.253906 1212.1875 234.253906 L 1218.457031 234.253906 C 1207.878906 256.015625 1198.867188 265.578125 1198.867188 265.578125 L 1206.242188 265.578125 C 1194.617188 287.246094 1185.503906 296.898438 1185.503906 296.898438 L 1231.574219 296.898438 L 1231.574219 311.265625 L 1250.914062 311.265625 L 1250.914062 296.898438 L 1296.984375 296.898438 " fill-opacity="1" fill-rule="nonzero"/></svg>