<?xml version="1.0" encoding="UTF-8"?><svg xmlns="http://www.w3.org/2000/svg" xmlns:xlink="http://www.w3.org/1999/xlink" contentScriptType="text/ecmascript" width="2880" zoomAndPan="magnify" contentStyleType="text/css" viewBox="0 0 2880 1619.99993" height="1619.99993" preserveAspectRatio="xMidYMid meet" version="1.0"><defs><clipPath id="clip-0"><path d="M 0 1238.945312 L 2880 1238.945312 L 2880 1461 L 0 1461 Z M 0 1238.945312 " clip-rule="nonzero"/></clipPath><clipPath id="clip-1"><path d="M 0 1459 L 2880 1459 L 2880 1617.230469 L 0 1617.230469 Z M 0 1459 " clip-rule="nonzero"/></clipPath></defs><path fill="rgb(19.60907%, 30.589294%, 35.688782%)" d="M 264.585938 1302.453125 C 264.585938 1302.453125 252.671875 1287.117188 237.980469 1260.308594 L 246.609375 1260.308594 C 246.609375 1260.308594 234.523438 1244.761719 221.0625 1218.160156 L 228.691406 1218.160156 C 228.691406 1218.160156 216.304688 1202.238281 204.964844 1176.019531 L 213.625 1176.019531 C 213.625 1176.019531 195.769531 1153.054688 189.691406 1119.542969 C 189.679688 1119.464844 189.601562 1119.488281 189.589844 1119.546875 C 180.847656 1159.835938 165.554688 1176.019531 165.554688 1176.019531 L 174.46875 1176.019531 C 162.417969 1205.527344 150.488281 1218.160156 150.488281 1218.160156 L 158.925781 1218.160156 C 144.691406 1247.441406 132.570312 1260.308594 132.570312 1260.308594 L 142.492188 1260.308594 C 126.847656 1289.46875 114.585938 1302.453125 114.585938 1302.453125 L 176.578125 1302.453125 L 176.578125 1321.78125 L 202.59375 1321.78125 L 202.59375 1302.453125 L 264.585938 1302.453125 " fill-opacity="1" fill-rule="nonzero"/><g clip-path="url(#clip-0)"><path fill="rgb(100%, 96.078491%, 92.158508%)" d="M 2897.828125 1261.5625 C 2805.878906 1228.09375 2729.609375 1321.378906 2559.960938 1321.378906 C 2331.867188 1321.378906 2331.867188 1296.457031 2103.769531 1296.457031 C 1875.671875 1296.457031 1875.671875 1348.441406 1647.578125 1348.441406 C 1419.480469 1348.441406 1419.480469 1327.078125 1191.382812 1327.078125 C 963.289062 1327.078125 963.289062 1235.925781 735.191406 1235.925781 C 507.097656 1235.925781 507.097656 1320.667969 279 1320.667969 C 87.257812 1320.667969 75.851562 1250.167969 -16.097656 1343.457031 L -16.097656 1460.242188 L 2896.402344 1460.242188 L 2896.402344 1261.5625 Z M 2897.828125 1261.5625 " fill-opacity="1" fill-rule="nonzero"/></g><g clip-path="url(#clip-1)"><path fill="rgb(100%, 96.078491%, 92.158508%)" d="M -14.675781 1459.53125 L 2897.828125 1459.53125 L 2897.828125 3290.359375 L -14.675781 3290.359375 Z M -14.675781 1459.53125 " fill-opacity="1" fill-rule="nonzero"/></g><path fill="rgb(19.60907%, 30.589294%, 35.688782%)" d="M 626.757812 1433.335938 C 626.757812 1433.335938 608.820312 1410.246094 586.695312 1369.878906 L 599.695312 1369.878906 C 599.695312 1369.878906 581.492188 1346.46875 561.222656 1306.414062 L 572.710938 1306.414062 C 572.710938 1306.414062 554.0625 1282.441406 536.988281 1242.960938 L 550.027344 1242.960938 C 550.027344 1242.960938 523.136719 1208.382812 513.992188 1157.917969 C 513.96875 1157.804688 513.855469 1157.835938 513.835938 1157.925781 C 500.671875 1218.589844 477.644531 1242.960938 477.644531 1242.960938 L 491.066406 1242.960938 C 472.917969 1287.394531 454.957031 1306.414062 454.957031 1306.414062 L 467.664062 1306.414062 C 446.226562 1350.503906 427.976562 1369.878906 427.976562 1369.878906 L 442.917969 1369.878906 C 419.359375 1413.785156 400.898438 1433.335938 400.898438 1433.335938 L 494.242188 1433.335938 L 494.242188 1462.441406 L 533.417969 1462.441406 L 533.417969 1433.335938 L 626.757812 1433.335938 " fill-opacity="1" fill-rule="nonzero"/><path fill="rgb(19.60907%, 30.589294%, 35.688782%)" d="M 878.898438 1283.742188 C 878.898438 1283.742188 863.558594 1264 844.644531 1229.492188 L 855.757812 1229.492188 C 855.757812 1229.492188 840.195312 1209.472656 822.867188 1175.230469 L 832.6875 1175.230469 C 832.6875 1175.230469 816.746094 1154.734375 802.144531 1120.980469 L 813.292969 1120.980469 C 813.292969 1120.980469 790.304688 1091.414062 782.484375 1048.273438 C 782.464844 1048.175781 782.367188 1048.203125 782.351562 1048.277344 C 771.097656 1100.144531 751.40625 1120.980469 751.40625 1120.980469 L 762.882812 1120.980469 C 747.367188 1158.96875 732.011719 1175.230469 732.011719 1175.230469 L 742.875 1175.230469 C 724.546875 1212.925781 708.945312 1229.492188 708.945312 1229.492188 L 721.71875 1229.492188 C 701.578125 1267.027344 685.792969 1283.742188 685.792969 1283.742188 L 765.597656 1283.742188 L 765.597656 1308.628906 L 799.09375 1308.628906 L 799.09375 1283.742188 L 878.898438 1283.742188 " fill-opacity="1" fill-rule="nonzero"/><path fill="rgb(19.60907%, 30.589294%, 35.688782%)" d="M 1345.335938 1302.457031 C 1345.335938 1302.457031 1327.394531 1279.363281 1305.269531 1239 L 1318.269531 1239 C 1318.269531 1239 1300.070312 1215.585938 1279.796875 1175.535156 L 1291.285156 1175.535156 C 1291.285156 1175.535156 1272.636719 1151.558594 1255.5625 1112.078125 L 1268.601562 1112.078125 C 1268.601562 1112.078125 1241.710938 1077.5 1232.566406 1027.039062 C 1232.542969 1026.925781 1232.429688 1026.957031 1232.410156 1027.046875 C 1219.246094 1087.710938 1196.21875 1112.078125 1196.21875 1112.078125 L 1209.640625 1112.078125 C 1191.492188 1156.511719 1173.53125 1175.535156 1173.53125 1175.535156 L 1186.238281 1175.535156 C 1164.800781 1219.625 1146.550781 1239 1146.550781 1239 L 1161.492188 1239 C 1137.933594 1282.902344 1119.472656 1302.457031 1119.472656 1302.457031 L 1212.816406 1302.457031 L 1212.816406 1331.5625 L 1251.992188 1331.5625 L 1251.992188 1302.457031 L 1345.335938 1302.457031 " fill-opacity="1" fill-rule="nonzero"/><path fill="rgb(19.60907%, 30.589294%, 35.688782%)" d="M 1138.96875 1549.148438 C 1138.96875 1549.148438 1123.628906 1529.40625 1104.714844 1494.898438 L 1115.828125 1494.898438 C 1115.828125 1494.898438 1100.269531 1474.878906 1082.9375 1440.636719 L 1092.757812 1440.636719 C 1092.757812 1440.636719 1076.816406 1420.136719 1062.21875 1386.382812 L 1073.363281 1386.382812 C 1073.363281 1386.382812 1050.375 1356.820312 1042.554688 1313.675781 C 1042.539062 1313.582031 1042.441406 1313.609375 1042.421875 1313.683594 C 1031.167969 1365.546875 1011.480469 1386.382812 1011.480469 1386.382812 L 1022.957031 1386.382812 C 1007.441406 1424.371094 992.085938 1440.636719 992.085938 1440.636719 L 1002.949219 1440.636719 C 984.621094 1478.332031 969.015625 1494.898438 969.015625 1494.898438 L 981.792969 1494.898438 C 961.648438 1532.433594 945.867188 1549.148438 945.867188 1549.148438 L 1025.667969 1549.148438 L 1025.667969 1574.03125 L 1059.164062 1574.03125 L 1059.164062 1549.148438 L 1138.96875 1549.148438 " fill-opacity="1" fill-rule="nonzero"/><path fill="rgb(19.60907%, 30.589294%, 35.688782%)" d="M 1576.726562 1368.488281 C 1576.726562 1368.488281 1565.773438 1354.386719 1552.261719 1329.734375 L 1560.199219 1329.734375 C 1560.199219 1329.734375 1549.085938 1315.4375 1536.707031 1290.976562 L 1543.722656 1290.976562 C 1543.722656 1290.976562 1532.332031 1276.335938 1521.90625 1252.226562 L 1529.867188 1252.226562 C 1529.867188 1252.226562 1513.445312 1231.109375 1507.859375 1200.292969 C 1507.847656 1200.222656 1507.777344 1200.242188 1507.765625 1200.296875 C 1499.726562 1237.34375 1485.664062 1252.226562 1485.664062 1252.226562 L 1493.863281 1252.226562 C 1482.777344 1279.359375 1471.808594 1290.976562 1471.808594 1290.976562 L 1479.570312 1290.976562 C 1466.480469 1317.902344 1455.332031 1329.734375 1455.332031 1329.734375 L 1464.457031 1329.734375 C 1450.070312 1356.546875 1438.796875 1368.488281 1438.796875 1368.488281 L 1495.800781 1368.488281 L 1495.800781 1386.261719 L 1519.726562 1386.261719 L 1519.726562 1368.488281 L 1576.726562 1368.488281 " fill-opacity="1" fill-rule="nonzero"/><path fill="rgb(19.60907%, 30.589294%, 35.688782%)" d="M 1933.027344 1552.394531 C 1933.027344 1552.394531 1915.089844 1529.304688 1892.964844 1488.941406 L 1905.960938 1488.941406 C 1905.960938 1488.941406 1887.761719 1465.527344 1867.492188 1425.472656 L 1878.980469 1425.472656 C 1878.980469 1425.472656 1860.332031 1401.5 1843.257812 1362.019531 L 1856.296875 1362.019531 C 1856.296875 1362.019531 1829.40625 1327.441406 1820.257812 1276.976562 C 1820.238281 1276.863281 1820.125 1276.894531 1820.101562 1276.984375 C 1806.941406 1337.648438 1783.910156 1362.019531 1783.910156 1362.019531 L 1797.335938 1362.019531 C 1779.1875 1406.453125 1761.226562 1425.472656 1761.226562 1425.472656 L 1773.933594 1425.472656 C 1752.496094 1469.5625 1734.246094 1488.941406 1734.246094 1488.941406 L 1749.1875 1488.941406 C 1725.628906 1532.84375 1707.167969 1552.394531 1707.167969 1552.394531 L 1800.507812 1552.394531 L 1800.507812 1581.5 L 1839.6875 1581.5 L 1839.6875 1552.394531 L 1933.027344 1552.394531 " fill-opacity="1" fill-rule="nonzero"/><path fill="rgb(19.60907%, 30.589294%, 35.688782%)" d="M 2229.917969 1414.625 C 2229.917969 1414.625 2214.582031 1394.882812 2195.667969 1360.371094 L 2206.777344 1360.371094 C 2206.777344 1360.371094 2191.21875 1340.355469 2173.886719 1306.109375 L 2183.707031 1306.109375 C 2183.707031 1306.109375 2167.765625 1285.613281 2153.167969 1251.859375 L 2164.3125 1251.859375 C 2164.3125 1251.859375 2141.324219 1222.296875 2133.503906 1179.152344 C 2133.488281 1179.054688 2133.390625 1179.082031 2133.371094 1179.160156 C 2122.117188 1231.023438 2102.429688 1251.859375 2102.429688 1251.859375 L 2113.90625 1251.859375 C 2098.390625 1289.847656 2083.035156 1306.109375 2083.035156 1306.109375 L 2093.898438 1306.109375 C 2075.570312 1343.804688 2059.964844 1360.371094 2059.964844 1360.371094 L 2072.742188 1360.371094 C 2052.597656 1397.90625 2036.816406 1414.625 2036.816406 1414.625 L 2116.621094 1414.625 L 2116.621094 1439.507812 L 2150.113281 1439.507812 L 2150.113281 1414.625 L 2229.917969 1414.625 " fill-opacity="1" fill-rule="nonzero"/><path fill="rgb(19.60907%, 30.589294%, 35.688782%)" d="M 2865.300781 1260.234375 C 2865.300781 1260.234375 2853.386719 1244.898438 2838.695312 1218.089844 L 2847.328125 1218.089844 C 2847.328125 1218.089844 2835.238281 1202.542969 2821.777344 1175.941406 L 2829.40625 1175.941406 C 2829.40625 1175.941406 2817.023438 1160.019531 2805.683594 1133.800781 L 2814.339844 1133.800781 C 2814.339844 1133.800781 2796.484375 1110.835938 2790.410156 1077.320312 C 2790.394531 1077.246094 2790.320312 1077.269531 2790.304688 1077.328125 C 2781.5625 1117.613281 2766.269531 1133.800781 2766.269531 1133.800781 L 2775.183594 1133.800781 C 2763.132812 1163.308594 2751.203125 1175.941406 2751.203125 1175.941406 L 2759.644531 1175.941406 C 2745.40625 1205.222656 2733.285156 1218.089844 2733.285156 1218.089844 L 2743.207031 1218.089844 C 2727.5625 1247.246094 2715.304688 1260.234375 2715.304688 1260.234375 L 2777.292969 1260.234375 L 2777.292969 1279.5625 L 2803.3125 1279.5625 L 2803.3125 1260.234375 L 2865.300781 1260.234375 " fill-opacity="1" fill-rule="nonzero"/><path fill="rgb(19.60907%, 30.589294%, 35.688782%)" d="M 2608.539062 1491.597656 C 2608.539062 1491.597656 2590.597656 1468.507812 2568.476562 1428.144531 L 2581.472656 1428.144531 C 2581.472656 1428.144531 2563.273438 1404.730469 2543.003906 1364.679688 L 2554.492188 1364.679688 C 2554.492188 1364.679688 2535.84375 1340.703125 2518.765625 1301.222656 L 2531.804688 1301.222656 C 2531.804688 1301.222656 2504.917969 1266.644531 2495.769531 1216.179688 C 2495.75 1216.066406 2495.636719 1216.101562 2495.613281 1216.191406 C 2482.449219 1276.851562 2459.421875 1301.222656 2459.421875 1301.222656 L 2472.847656 1301.222656 C 2454.699219 1345.65625 2436.738281 1364.679688 2436.738281 1364.679688 L 2449.441406 1364.679688 C 2428.007812 1408.769531 2409.753906 1428.144531 2409.753906 1428.144531 L 2424.699219 1428.144531 C 2401.140625 1472.046875 2382.679688 1491.597656 2382.679688 1491.597656 L 2476.019531 1491.597656 L 2476.019531 1520.703125 L 2515.199219 1520.703125 L 2515.199219 1491.597656 L 2608.539062 1491.597656 " fill-opacity="1" fill-rule="nonzero"/></svg>